solid OpenSCAD_Model
  facet normal 0 -0.910366 0.413803
    outer loop
      vertex -4.75 4.75 1.975
      vertex 4.98864 4.98864 2.5
      vertex -4.98864 4.98864 2.5
    endloop
  endfacet
  facet normal 0 -0.910366 0.413803
    outer loop
      vertex 4.98864 4.98864 2.5
      vertex -4.75 4.75 1.975
      vertex 4.75 4.75 1.975
    endloop
  endfacet
  facet normal -0.910366 0 0.413803
    outer loop
      vertex 4.75 -4.75 1.975
      vertex 4.98864 4.98864 2.5
      vertex 4.75 4.75 1.975
    endloop
  endfacet
  facet normal -0.910366 0 0.413803
    outer loop
      vertex 4.98864 4.98864 2.5
      vertex 4.75 -4.75 1.975
      vertex 4.98864 -4.98864 2.5
    endloop
  endfacet
  facet normal 0.910366 0 0.413803
    outer loop
      vertex -4.98864 4.98864 2.5
      vertex -4.75 -4.75 1.975
      vertex -4.75 4.75 1.975
    endloop
  endfacet
  facet normal 0.910366 0 0.413803
    outer loop
      vertex -4.75 -4.75 1.975
      vertex -4.98864 4.98864 2.5
      vertex -4.98864 -4.98864 2.5
    endloop
  endfacet
  facet normal 0 0.910366 0.413803
    outer loop
      vertex 4.98864 -4.98864 2.5
      vertex 4.75 -4.75 1.975
      vertex 4.75 -4.98864 2.5
    endloop
  endfacet
  facet normal 0 0.910366 0.413803
    outer loop
      vertex -4.75 -4.98864 2.5
      vertex -4.75 -4.75 1.975
      vertex -4.98864 -4.98864 2.5
    endloop
  endfacet
  facet normal 1 -0 0
    outer loop
      vertex -4.75 -6.7 2.5
      vertex -4.75 -4.75 1.975
      vertex -4.75 -4.98864 2.5
    endloop
  endfacet
  facet normal 1 0 0
    outer loop
      vertex -4.75 -4.75 1.975
      vertex -4.75 -6.7 2.5
      vertex -4.75 -6.7 1.05
    endloop
  endfacet
  facet normal 1 0 0
    outer loop
      vertex -4.75 -4.75 1.975
      vertex -4.75 -6.7 1.05
      vertex -4.75 -4.75 1.05
    endloop
  endfacet
  facet normal 1 0 0
    outer loop
      vertex -4.75 -4.75 1.05
      vertex -4.75 4.75 1.975
      vertex -4.75 -4.75 1.975
    endloop
  endfacet
  facet normal 1 0 0
    outer loop
      vertex -4.75 4.75 1.975
      vertex -4.75 -4.75 1.05
      vertex -4.75 4.75 0
    endloop
  endfacet
  facet normal 1 0 0
    outer loop
      vertex -4.75 4.75 0
      vertex -4.75 -4.75 1.05
      vertex -4.75 -4.75 0
    endloop
  endfacet
  facet normal 0 -1 0
    outer loop
      vertex -4.75 4.75 0
      vertex 4.75 4.75 1.975
      vertex -4.75 4.75 1.975
    endloop
  endfacet
  facet normal 0 -1 -0
    outer loop
      vertex 4.75 4.75 1.975
      vertex -4.75 4.75 0
      vertex 4.75 4.75 0
    endloop
  endfacet
  facet normal 0 1 0
    outer loop
      vertex 4.75 -4.75 1.05
      vertex 4.75 -4.75 0
      vertex 3.7 -4.75 0
    endloop
  endfacet
  facet normal 0 1 0
    outer loop
      vertex -4.75 -4.75 1.05
      vertex -3.7 -4.75 0
      vertex -4.75 -4.75 0
    endloop
  endfacet
  facet normal -1 0 0
    outer loop
      vertex 4.75 -4.75 1.05
      vertex 4.75 4.75 0
      vertex 4.75 -4.75 0
    endloop
  endfacet
  facet normal -1 0 0
    outer loop
      vertex 4.75 4.75 0
      vertex 4.75 -4.75 1.05
      vertex 4.75 4.75 1.975
    endloop
  endfacet
  facet normal -1 0 0
    outer loop
      vertex 4.75 -4.75 1.05
      vertex 4.75 -4.75 1.975
      vertex 4.75 4.75 1.975
    endloop
  endfacet
  facet normal -1 0 0
    outer loop
      vertex 4.75 -4.75 1.05
      vertex 4.75 -4.98864 2.5
      vertex 4.75 -4.75 1.975
    endloop
  endfacet
  facet normal -1 0 0
    outer loop
      vertex 4.75 -12.1 1.05
      vertex 4.75 -4.98864 2.5
      vertex 4.75 -4.75 1.05
    endloop
  endfacet
  facet normal -1 -0 0
    outer loop
      vertex 4.75 -4.98864 2.5
      vertex 4.75 -12.1 1.05
      vertex 4.75 -12.1 2.5
    endloop
  endfacet
  facet normal 0.49029 0.849208 0.196116
    outer loop
      vertex 11.55 -1.81865 2.5
      vertex 11.05 -0.952627 1.16659e-016
      vertex 9.225 -0.476314 2.5
    endloop
  endfacet
  facet normal 0.279618 -0.953574 0.111847
    outer loop
      vertex 9.4 -3.06152e-016 0
      vertex 8.4 -3.01677e-007 2.5
      vertex 9.4 -2.79647e-007 3.42457e-023
    endloop
  endfacet
  facet normal 0.49029 -0.849208 0.196116
    outer loop
      vertex 8.4 -3.01677e-007 2.5
      vertex 9.4 -3.06152e-016 0
      vertex 11.55 1.81865 2.5
    endloop
  endfacet
  facet normal 0.49029 -0.849208 0.196116
    outer loop
      vertex 11.55 1.81865 2.5
      vertex 9.4 -3.06152e-016 0
      vertex 11.05 0.952627 0
    endloop
  endfacet
  facet normal -0.980581 3.4833e-007 0.196116
    outer loop
      vertex 11.55 -1.81865 2.5
      vertex 11.55 0.866025 2.5
      vertex 11.05 -0.952627 1.16659e-016
    endloop
  endfacet
  facet normal 0.49029 0.849208 0.196116
    outer loop
      vertex 9.4 -2.79647e-007 3.42457e-023
      vertex 9.225 -0.476314 2.5
      vertex 11.05 -0.952627 1.16659e-016
    endloop
  endfacet
  facet normal 0.49029 0.849208 0.196116
    outer loop
      vertex 9.225 -0.476314 2.5
      vertex 9.4 -2.79647e-007 3.42457e-023
      vertex 8.4 -3.01677e-007 2.5
    endloop
  endfacet
  facet normal -0.980581 0 0.196116
    outer loop
      vertex 11.05 0.952627 0
      vertex 11.55 0.866025 2.5
      vertex 11.55 1.81865 2.5
    endloop
  endfacet
  facet normal -0.980581 0 0.196116
    outer loop
      vertex 11.05 -3.06152e-016 0
      vertex 11.55 0.866025 2.5
      vertex 11.05 0.952627 0
    endloop
  endfacet
  facet normal -0.980581 9.81658e-007 0.196116
    outer loop
      vertex 11.55 0.866025 2.5
      vertex 11.05 -3.06152e-016 0
      vertex 11.05 -0.952627 1.16659e-016
    endloop
  endfacet
  facet normal 0.281383 -0.959595 0
    outer loop
      vertex 9.4 -3.06152e-016 0
      vertex 9.4 -2.79647e-007 3.42457e-023
      vertex 9.4 -2.79647e-007 0
    endloop
  endfacet
  facet normal 0.5 0.866025 -0
    outer loop
      vertex 11.05 -0.952627 0
      vertex 9.4 -2.79647e-007 3.42457e-023
      vertex 11.05 -0.952627 1.16659e-016
    endloop
  endfacet
  facet normal 0.5 0.866025 0
    outer loop
      vertex 9.4 -2.79647e-007 3.42457e-023
      vertex 11.05 -0.952627 0
      vertex 9.4 -2.79647e-007 0
    endloop
  endfacet
  facet normal -1 1.0011e-006 0
    outer loop
      vertex 11.05 -0.952627 1.16659e-016
      vertex 11.05 -3.06152e-016 0
      vertex 11.05 -0.952627 0
    endloop
  endfacet
  facet normal -0.49029 0.849208 0.196116
    outer loop
      vertex -11.05 -0.952627 1.16659e-016
      vertex -11.55 -1.81865 2.5
      vertex -9.225 -0.476314 2.5
    endloop
  endfacet
  facet normal -0.49029 -0.849208 0.196116
    outer loop
      vertex -9.4 -3.06152e-016 0
      vertex -8.4 -3.01677e-007 2.5
      vertex -11.55 1.81865 2.5
    endloop
  endfacet
  facet normal -0.49029 -0.849208 0.196116
    outer loop
      vertex -9.4 -3.06152e-016 0
      vertex -11.55 1.81865 2.5
      vertex -11.05 0.952627 0
    endloop
  endfacet
  facet normal -0.279618 -0.953574 0.111847
    outer loop
      vertex -8.4 -3.01677e-007 2.5
      vertex -9.4 -3.06152e-016 0
      vertex -9.4 -2.79647e-007 3.42457e-023
    endloop
  endfacet
  facet normal 0.980581 3.4833e-007 0.196116
    outer loop
      vertex -11.05 -0.952627 1.16659e-016
      vertex -11.55 0.866025 2.5
      vertex -11.55 -1.81865 2.5
    endloop
  endfacet
  facet normal -0.49029 0.849208 0.196116
    outer loop
      vertex -9.4 -2.79647e-007 3.42457e-023
      vertex -9.225 -0.476314 2.5
      vertex -8.4 -3.01677e-007 2.5
    endloop
  endfacet
  facet normal -0.49029 0.849208 0.196116
    outer loop
      vertex -9.225 -0.476314 2.5
      vertex -9.4 -2.79647e-007 3.42457e-023
      vertex -11.05 -0.952627 1.16659e-016
    endloop
  endfacet
  facet normal 0.980581 -0 0.196116
    outer loop
      vertex -11.55 0.866025 2.5
      vertex -11.05 0.952627 0
      vertex -11.55 1.81865 2.5
    endloop
  endfacet
  facet normal 0.980581 0 0.196116
    outer loop
      vertex -11.55 0.866025 2.5
      vertex -11.05 -3.06152e-016 0
      vertex -11.05 0.952627 0
    endloop
  endfacet
  facet normal 0.980581 9.81658e-007 0.196116
    outer loop
      vertex -11.05 -3.06152e-016 0
      vertex -11.55 0.866025 2.5
      vertex -11.05 -0.952627 1.16659e-016
    endloop
  endfacet
  facet normal -0.281383 -0.959595 -0
    outer loop
      vertex -9.4 -2.79647e-007 3.42457e-023
      vertex -9.4 -3.06152e-016 0
      vertex -9.4 -2.79647e-007 0
    endloop
  endfacet
  facet normal -0.5 0.866025 0
    outer loop
      vertex -9.4 -2.79647e-007 0
      vertex -11.05 -0.952627 1.16659e-016
      vertex -9.4 -2.79647e-007 3.42457e-023
    endloop
  endfacet
  facet normal -0.5 0.866025 0
    outer loop
      vertex -11.05 -0.952627 1.16659e-016
      vertex -9.4 -2.79647e-007 0
      vertex -11.05 -0.952627 0
    endloop
  endfacet
  facet normal 1 1.0011e-006 -0
    outer loop
      vertex -11.05 -0.952627 0
      vertex -11.05 -3.06152e-016 0
      vertex -11.05 -0.952627 1.16659e-016
    endloop
  endfacet
  facet normal -0.707107 0 0.707107
    outer loop
      vertex 3.7 -11.05 0
      vertex 4.75 -4.75 1.05
      vertex 3.7 -4.75 0
    endloop
  endfacet
  facet normal -0.707107 0 0.707107
    outer loop
      vertex 4.75 -4.75 1.05
      vertex 3.7 -11.05 0
      vertex 4.75 -12.1 1.05
    endloop
  endfacet
  facet normal 0.707107 -0 0.707107
    outer loop
      vertex -4.75 -6.7 1.05
      vertex -3.7 -4.75 0
      vertex -4.75 -4.75 1.05
    endloop
  endfacet
  facet normal 0.707107 0 0.707107
    outer loop
      vertex -3.7 -4.75 0
      vertex -4.75 -6.7 1.05
      vertex -3.7 -6.7 0
    endloop
  endfacet
  facet normal 1 -0 0
    outer loop
      vertex -7.25 -12.1 2.5
      vertex -7.25 -6.7 1.05
      vertex -7.25 -6.7 2.5
    endloop
  endfacet
  facet normal 1 0 0
    outer loop
      vertex -7.25 -6.7 1.05
      vertex -7.25 -12.1 2.5
      vertex -7.25 -12.1 1.05
    endloop
  endfacet
  facet normal 0 -1 0
    outer loop
      vertex -7.25 -6.7 1.05
      vertex -4.75 -6.7 2.5
      vertex -7.25 -6.7 2.5
    endloop
  endfacet
  facet normal 0 -1 0
    outer loop
      vertex -7.25 -6.7 1.05
      vertex -4.75 -6.7 1.05
      vertex -4.75 -6.7 2.5
    endloop
  endfacet
  facet normal 0 -1 0
    outer loop
      vertex -6.2 -6.7 0
      vertex -4.75 -6.7 1.05
      vertex -7.25 -6.7 1.05
    endloop
  endfacet
  facet normal 0 -1 -0
    outer loop
      vertex -4.75 -6.7 1.05
      vertex -6.2 -6.7 0
      vertex -3.7 -6.7 0
    endloop
  endfacet
  facet normal 0 1 -0
    outer loop
      vertex 4.75 -12.1 1.05
      vertex -7.25 -12.1 2.5
      vertex 4.75 -12.1 2.5
    endloop
  endfacet
  facet normal 0 1 0
    outer loop
      vertex -7.25 -12.1 2.5
      vertex 4.75 -12.1 1.05
      vertex -7.25 -12.1 1.05
    endloop
  endfacet
  facet normal 0.707107 0 0.707107
    outer loop
      vertex -7.25 -6.7 1.05
      vertex -6.2 -11.05 0
      vertex -6.2 -6.7 0
    endloop
  endfacet
  facet normal 0.707107 0 0.707107
    outer loop
      vertex -6.2 -11.05 0
      vertex -7.25 -6.7 1.05
      vertex -7.25 -12.1 1.05
    endloop
  endfacet
  facet normal 0 0.707107 0.707107
    outer loop
      vertex 3.7 -11.05 0
      vertex -7.25 -12.1 1.05
      vertex 4.75 -12.1 1.05
    endloop
  endfacet
  facet normal 0 0.707107 0.707107
    outer loop
      vertex -7.25 -12.1 1.05
      vertex 3.7 -11.05 0
      vertex -6.2 -11.05 0
    endloop
  endfacet
  facet normal 0 -0.304776 0.952424
    outer loop
      vertex -15 10.1 10.5
      vertex -13 -14.9 2.5
      vertex -13 10.1 10.5
    endloop
  endfacet
  facet normal 0 -0.304776 0.952424
    outer loop
      vertex -13 -14.9 2.5
      vertex -15 10.1 10.5
      vertex -15 -14.9 2.5
    endloop
  endfacet
  facet normal -1 0 0
    outer loop
      vertex -15 55 20
      vertex -15 75 2
      vertex -15 73 0
    endloop
  endfacet
  facet normal -1 0 0
    outer loop
      vertex -15 75 2
      vertex -15 55 20
      vertex -15 75 20
    endloop
  endfacet
  facet normal -1 0 0
    outer loop
      vertex -15 73 0
      vertex -15 10.1 10.5
      vertex -15 55 20
    endloop
  endfacet
  facet normal -1 0 0
    outer loop
      vertex -15 -14.9 0
      vertex -15 10.1 10.5
      vertex -15 73 0
    endloop
  endfacet
  facet normal -1 0 0
    outer loop
      vertex -15 10.1 10.5
      vertex -15 -14.9 0
      vertex -15 -14.9 2.5
    endloop
  endfacet
  facet normal 0 0 -1
    outer loop
      vertex -3.7 -6.7 0
      vertex -4.75 -4.75 0
      vertex -3.7 -4.75 0
    endloop
  endfacet
  facet normal 0 0 -1
    outer loop
      vertex -9.4 -2.79647e-007 0
      vertex -4.75 -4.75 0
      vertex -6.2 -6.7 0
    endloop
  endfacet
  facet normal 0 0 -1
    outer loop
      vertex -6.2 -6.7 0
      vertex -4.75 -4.75 0
      vertex -3.7 -6.7 0
    endloop
  endfacet
  facet normal 0 0 -1
    outer loop
      vertex -11.5 14.1 0
      vertex 11.5 49 0
      vertex 11.5 14.1 0
    endloop
  endfacet
  facet normal -0 0 -1
    outer loop
      vertex 11.5 49 0
      vertex -11.5 14.1 0
      vertex -11.5 49 0
    endloop
  endfacet
  facet normal 0 0 -1
    outer loop
      vertex 11.5 14.1 0
      vertex 15 -14.9 0
      vertex 11.5 10.1 0
    endloop
  endfacet
  facet normal 0 0 -1
    outer loop
      vertex 11.05 0.952627 0
      vertex 15 -14.9 0
      vertex 11.05 -3.06152e-016 0
    endloop
  endfacet
  facet normal 0 0 -1
    outer loop
      vertex 15 -14.9 0
      vertex 11.05 -0.952627 0
      vertex 11.05 -3.06152e-016 0
    endloop
  endfacet
  facet normal 0 0 -1
    outer loop
      vertex 4.75 -4.75 0
      vertex 11.05 -0.952627 0
      vertex 15 -14.9 0
    endloop
  endfacet
  facet normal -0 0 -1
    outer loop
      vertex 11.05 -0.952627 0
      vertex 4.75 -4.75 0
      vertex 9.4 -2.79647e-007 0
    endloop
  endfacet
  facet normal 0 0 -1
    outer loop
      vertex 15 -14.9 0
      vertex 3.7 -11.05 0
      vertex 4.75 -4.75 0
    endloop
  endfacet
  facet normal 0 0 -1
    outer loop
      vertex -15 -14.9 0
      vertex 3.7 -11.05 0
      vertex 15 -14.9 0
    endloop
  endfacet
  facet normal 0 0 -1
    outer loop
      vertex -15 -14.9 0
      vertex -6.2 -6.7 0
      vertex -6.2 -11.05 0
    endloop
  endfacet
  facet normal 0 0 -1
    outer loop
      vertex -6.2 -6.7 0
      vertex -11.05 -0.952627 0
      vertex -9.4 -2.79647e-007 0
    endloop
  endfacet
  facet normal 0 0 -1
    outer loop
      vertex -15 -14.9 0
      vertex -11.05 0.952627 0
      vertex -11.05 -3.06152e-016 0
    endloop
  endfacet
  facet normal 0 0 -1
    outer loop
      vertex -15 -14.9 0
      vertex -11.05 -3.06152e-016 0
      vertex -11.05 -0.952627 0
    endloop
  endfacet
  facet normal 0 0 -1
    outer loop
      vertex -15 -14.9 0
      vertex -11.5 14.1 0
      vertex -11.5 10.1 0
    endloop
  endfacet
  facet normal 0 0 -1
    outer loop
      vertex -11.5 14.1 0
      vertex -15 73 0
      vertex -11.5 49 0
    endloop
  endfacet
  facet normal -0 0 -1
    outer loop
      vertex -11.5 14.1 0
      vertex -15 -14.9 0
      vertex -15 73 0
    endloop
  endfacet
  facet normal -0 0 -1
    outer loop
      vertex -11.05 0.952627 0
      vertex -15 -14.9 0
      vertex -11.5 10.1 0
    endloop
  endfacet
  facet normal -0 0 -1
    outer loop
      vertex -6.2 -6.7 0
      vertex -15 -14.9 0
      vertex -11.05 -0.952627 0
    endloop
  endfacet
  facet normal -0 0 -1
    outer loop
      vertex 3.7 -11.05 0
      vertex -15 -14.9 0
      vertex -6.2 -11.05 0
    endloop
  endfacet
  facet normal 0 0 -1
    outer loop
      vertex 15 -14.9 0
      vertex 11.5 14.1 0
      vertex 15 73 0
    endloop
  endfacet
  facet normal 0 0 -1
    outer loop
      vertex 11.5 49 0
      vertex 15 73 0
      vertex 11.5 14.1 0
    endloop
  endfacet
  facet normal 0 0 -1
    outer loop
      vertex 11.5 53 0
      vertex 15 73 0
      vertex 11.5 49 0
    endloop
  endfacet
  facet normal 0 0 -1
    outer loop
      vertex -11.5 53 0
      vertex 15 73 0
      vertex 11.5 53 0
    endloop
  endfacet
  facet normal 0 0 -1
    outer loop
      vertex -11.5 53 0
      vertex -15 73 0
      vertex 15 73 0
    endloop
  endfacet
  facet normal 0 0 -1
    outer loop
      vertex -11.5 49 0
      vertex -15 73 0
      vertex -11.5 53 0
    endloop
  endfacet
  facet normal 0 0 -1
    outer loop
      vertex 15 -14.9 0
      vertex 11.05 0.952627 0
      vertex 11.5 10.1 0
    endloop
  endfacet
  facet normal 0 0 -1
    outer loop
      vertex 4.75 4.75 0
      vertex 11.05 0.952627 0
      vertex 9.4 -3.06152e-016 0
    endloop
  endfacet
  facet normal 0 0 -1
    outer loop
      vertex 4.75 4.75 0
      vertex 9.4 -3.06152e-016 0
      vertex 9.4 -2.79647e-007 0
    endloop
  endfacet
  facet normal 0 0 -1
    outer loop
      vertex 4.75 4.75 0
      vertex 9.4 -2.79647e-007 0
      vertex 4.75 -4.75 0
    endloop
  endfacet
  facet normal 0 0 -1
    outer loop
      vertex 11.05 0.952627 0
      vertex 4.75 4.75 0
      vertex 11.5 10.1 0
    endloop
  endfacet
  facet normal 0 0 -1
    outer loop
      vertex -4.75 4.75 0
      vertex 11.5 10.1 0
      vertex 4.75 4.75 0
    endloop
  endfacet
  facet normal 0 0 -1
    outer loop
      vertex -4.75 -4.75 0
      vertex -9.4 -2.79647e-007 0
      vertex -4.75 4.75 0
    endloop
  endfacet
  facet normal 0 0 -1
    outer loop
      vertex -9.4 -3.06152e-016 0
      vertex -4.75 4.75 0
      vertex -9.4 -2.79647e-007 0
    endloop
  endfacet
  facet normal 0 0 -1
    outer loop
      vertex -11.05 0.952627 0
      vertex -4.75 4.75 0
      vertex -9.4 -3.06152e-016 0
    endloop
  endfacet
  facet normal 0 0 -1
    outer loop
      vertex -4.75 4.75 0
      vertex -11.5 10.1 0
      vertex 11.5 10.1 0
    endloop
  endfacet
  facet normal 0 0 -1
    outer loop
      vertex -11.5 10.1 0
      vertex -4.75 4.75 0
      vertex -11.05 0.952627 0
    endloop
  endfacet
  facet normal -0 0 -1
    outer loop
      vertex 4.75 -4.75 0
      vertex 3.7 -11.05 0
      vertex 3.7 -4.75 0
    endloop
  endfacet
  facet normal 0 -1 0
    outer loop
      vertex -15 -14.9 0
      vertex -13 -14.9 2.5
      vertex -15 -14.9 2.5
    endloop
  endfacet
  facet normal 0 -1 -0
    outer loop
      vertex -13 -14.9 2.5
      vertex -15 -14.9 0
      vertex 13 -14.9 2.5
    endloop
  endfacet
  facet normal 0 -1 0
    outer loop
      vertex 15 -14.9 0
      vertex 13 -14.9 2.5
      vertex -15 -14.9 0
    endloop
  endfacet
  facet normal 0 -1 0
    outer loop
      vertex 13 -14.9 2.5
      vertex 15 -14.9 0
      vertex 15 -14.9 2.5
    endloop
  endfacet
  facet normal 1 -0 0
    outer loop
      vertex -13 10.1 10.5
      vertex -13 55 2.5
      vertex -13 55 20
    endloop
  endfacet
  facet normal 1 0 0
    outer loop
      vertex -13 55 2.5
      vertex -13 10.1 10.5
      vertex -13 -14.9 2.5
    endloop
  endfacet
  facet normal 0 -0.206999 0.978341
    outer loop
      vertex -15 55 20
      vertex -13 10.1 10.5
      vertex -13 55 20
    endloop
  endfacet
  facet normal 0 -0.206999 0.978341
    outer loop
      vertex -13 10.1 10.5
      vertex -15 55 20
      vertex -15 10.1 10.5
    endloop
  endfacet
  facet normal 0 0 1
    outer loop
      vertex -15 75 20
      vertex -13 60.55 20
      vertex -13 73.5 20
    endloop
  endfacet
  facet normal -0 0 1
    outer loop
      vertex -15 75 20
      vertex -13 73.5 20
      vertex -11.5 75 20
    endloop
  endfacet
  facet normal 0 0 1
    outer loop
      vertex -13 60.55 20
      vertex -15 75 20
      vertex -15 55 20
    endloop
  endfacet
  facet normal 0 0 1
    outer loop
      vertex -13 60.55 20
      vertex -15 55 20
      vertex -13 55 20
    endloop
  endfacet
  facet normal 0 0 1
    outer loop
      vertex 13 60.55 20
      vertex 15 75 20
      vertex 13 73.5 20
    endloop
  endfacet
  facet normal 0 -0 1
    outer loop
      vertex 13 73.5 20
      vertex 15 75 20
      vertex 11.5 75 20
    endloop
  endfacet
  facet normal 0 0 1
    outer loop
      vertex 15 75 20
      vertex 13 60.55 20
      vertex 15 55 20
    endloop
  endfacet
  facet normal -0 0 1
    outer loop
      vertex 12.8858 59.976 20
      vertex 15 55 20
      vertex 13 60.55 20
    endloop
  endfacet
  facet normal -0 0 1
    outer loop
      vertex 12.5607 59.4893 20
      vertex 15 55 20
      vertex 12.8858 59.976 20
    endloop
  endfacet
  facet normal 0 0 1
    outer loop
      vertex 15 55 20
      vertex 12.5607 59.4893 20
      vertex 13 55 20
    endloop
  endfacet
  facet normal -0 0 1
    outer loop
      vertex 12.074 59.1642 20
      vertex 13 55 20
      vertex 12.5607 59.4893 20
    endloop
  endfacet
  facet normal -0 0 1
    outer loop
      vertex 11.5 59.05 20
      vertex 13 55 20
      vertex 12.074 59.1642 20
    endloop
  endfacet
  facet normal -0 0 1
    outer loop
      vertex -11.5 59.05 20
      vertex 13 55 20
      vertex 11.5 59.05 20
    endloop
  endfacet
  facet normal 0 0 1
    outer loop
      vertex -11.5 59.05 20
      vertex -13 55 20
      vertex 13 55 20
    endloop
  endfacet
  facet normal 0 0 1
    outer loop
      vertex -12.074 59.1642 20
      vertex -13 55 20
      vertex -11.5 59.05 20
    endloop
  endfacet
  facet normal 0 0 1
    outer loop
      vertex -12.5607 59.4893 20
      vertex -13 55 20
      vertex -12.074 59.1642 20
    endloop
  endfacet
  facet normal 0 0 1
    outer loop
      vertex -12.8858 59.976 20
      vertex -13 55 20
      vertex -12.5607 59.4893 20
    endloop
  endfacet
  facet normal 0 0 1
    outer loop
      vertex -13 55 20
      vertex -12.8858 59.976 20
      vertex -13 60.55 20
    endloop
  endfacet
  facet normal 0 -0.304776 0.952424
    outer loop
      vertex 13 10.1 10.5
      vertex 15 -14.9 2.5
      vertex 15 10.1 10.5
    endloop
  endfacet
  facet normal 0 -0.304776 0.952424
    outer loop
      vertex 15 -14.9 2.5
      vertex 13 10.1 10.5
      vertex 13 -14.9 2.5
    endloop
  endfacet
  facet normal 1 -0 0
    outer loop
      vertex 15 55 20
      vertex 15 75 2
      vertex 15 75 20
    endloop
  endfacet
  facet normal 1 0 0
    outer loop
      vertex 15 75 2
      vertex 15 55 20
      vertex 15 73 0
    endloop
  endfacet
  facet normal 1 -0 0
    outer loop
      vertex 15 10.1 10.5
      vertex 15 73 0
      vertex 15 55 20
    endloop
  endfacet
  facet normal 1 0 0
    outer loop
      vertex 15 -14.9 0
      vertex 15 10.1 10.5
      vertex 15 -14.9 2.5
    endloop
  endfacet
  facet normal 1 0 0
    outer loop
      vertex 15 10.1 10.5
      vertex 15 -14.9 0
      vertex 15 73 0
    endloop
  endfacet
  facet normal -1 0 0
    outer loop
      vertex 13 55 2.5
      vertex 13 10.1 10.5
      vertex 13 55 20
    endloop
  endfacet
  facet normal -1 0 -0
    outer loop
      vertex 13 10.1 10.5
      vertex 13 55 2.5
      vertex 13 -14.9 2.5
    endloop
  endfacet
  facet normal 0 -0.206999 0.978341
    outer loop
      vertex 13 55 20
      vertex 15 10.1 10.5
      vertex 15 55 20
    endloop
  endfacet
  facet normal 0 -0.206999 0.978341
    outer loop
      vertex 15 10.1 10.5
      vertex 13 55 20
      vertex 13 10.1 10.5
    endloop
  endfacet
  facet normal 3.37175e-007 0.707107 -0.707107
    outer loop
      vertex 15 75 2
      vertex 13 73.25 0.25
      vertex 13 75 2
    endloop
  endfacet
  facet normal 0 0.707107 -0.707107
    outer loop
      vertex 13 73.25 0.25
      vertex 15 73 0
      vertex -13 73.25 0.25
    endloop
  endfacet
  facet normal 0 0.707107 -0.707107
    outer loop
      vertex 15 73 0
      vertex 13 73.25 0.25
      vertex 15 75 2
    endloop
  endfacet
  facet normal 0 0.707107 -0.707107
    outer loop
      vertex -13 73.25 0.25
      vertex -15 75 2
      vertex -13 75 2
    endloop
  endfacet
  facet normal 0 0.707107 -0.707107
    outer loop
      vertex -13 73.25 0.25
      vertex -15 73 0
      vertex -15 75 2
    endloop
  endfacet
  facet normal 0 0.707107 -0.707107
    outer loop
      vertex -15 73 0
      vertex -13 73.25 0.25
      vertex 15 73 0
    endloop
  endfacet
  facet normal -1 0 0
    outer loop
      vertex 13 73.25 0.25
      vertex 13 73.5 2
      vertex 13 75 2
    endloop
  endfacet
  facet normal -1 0 0
    outer loop
      vertex 13 60.55 0.25
      vertex 13 73.5 2
      vertex 13 73.25 0.25
    endloop
  endfacet
  facet normal -1 -0 0
    outer loop
      vertex 13 73.5 2
      vertex 13 60.55 0.25
      vertex 13 60.55 20
    endloop
  endfacet
  facet normal -1 0 0
    outer loop
      vertex 13 73.5 2
      vertex 13 60.55 20
      vertex 13 73.5 20
    endloop
  endfacet
  facet normal -0.707107 0 -0.707107
    outer loop
      vertex 13 75 2
      vertex 13 73.5 2
      vertex 11.5 75 3.5
    endloop
  endfacet
  facet normal 0.707107 0 -0.707107
    outer loop
      vertex -11.5 75 3.5
      vertex -13 73.5 2
      vertex -13 75 2
    endloop
  endfacet
  facet normal 1 -0 0
    outer loop
      vertex -13 60.55 20
      vertex -13 73.5 2
      vertex -13 73.5 20
    endloop
  endfacet
  facet normal 1 0 0
    outer loop
      vertex -13 60.55 0.25
      vertex -13 73.5 2
      vertex -13 60.55 20
    endloop
  endfacet
  facet normal 1 0 0
    outer loop
      vertex -13 73.5 2
      vertex -13 60.55 0.25
      vertex -13 73.25 0.25
    endloop
  endfacet
  facet normal 1 0 0
    outer loop
      vertex -13 75 2
      vertex -13 73.5 2
      vertex -13 73.25 0.25
    endloop
  endfacet
  facet normal 0 0 1
    outer loop
      vertex 11.5 59.05 0.25
      vertex 13 60.55 0.25
      vertex 13 73.25 0.25
    endloop
  endfacet
  facet normal 0 0 1
    outer loop
      vertex 13 60.55 0.25
      vertex 11.5 59.05 0.25
      vertex 12.8858 59.976 0.25
    endloop
  endfacet
  facet normal 0 0 1
    outer loop
      vertex 12.8858 59.976 0.25
      vertex 11.5 59.05 0.25
      vertex 12.5607 59.4893 0.25
    endloop
  endfacet
  facet normal 0 0 1
    outer loop
      vertex 12.5607 59.4893 0.25
      vertex 11.5 59.05 0.25
      vertex 12.074 59.1642 0.25
    endloop
  endfacet
  facet normal 0 0 1
    outer loop
      vertex 13 73.25 0.25
      vertex -11.5 59.05 0.25
      vertex 11.5 59.05 0.25
    endloop
  endfacet
  facet normal -0 0 1
    outer loop
      vertex -13 73.25 0.25
      vertex -11.5 59.05 0.25
      vertex 13 73.25 0.25
    endloop
  endfacet
  facet normal -0 0 1
    outer loop
      vertex -13 60.55 0.25
      vertex -11.5 59.05 0.25
      vertex -13 73.25 0.25
    endloop
  endfacet
  facet normal 0 0 1
    outer loop
      vertex -12.074 59.1642 0.25
      vertex -13 60.55 0.25
      vertex -12.5607 59.4893 0.25
    endloop
  endfacet
  facet normal 0 0 1
    outer loop
      vertex -11.5 59.05 0.25
      vertex -13 60.55 0.25
      vertex -12.074 59.1642 0.25
    endloop
  endfacet
  facet normal 0 0 1
    outer loop
      vertex -12.5607 59.4893 0.25
      vertex -13 60.55 0.25
      vertex -12.8858 59.976 0.25
    endloop
  endfacet
  facet normal 0.707107 -0.707107 0
    outer loop
      vertex -13 73.5 20
      vertex -11.5 75 3.5
      vertex -11.5 75 20
    endloop
  endfacet
  facet normal 0.707107 -0.707107 0
    outer loop
      vertex -11.5 75 3.5
      vertex -13 73.5 20
      vertex -13 73.5 2
    endloop
  endfacet
  facet normal -0.707107 -0.707107 -0
    outer loop
      vertex 13 73.5 20
      vertex 11.5 75 3.5
      vertex 13 73.5 2
    endloop
  endfacet
  facet normal -0.707107 -0.707107 0
    outer loop
      vertex 11.5 75 3.5
      vertex 13 73.5 20
      vertex 11.5 75 20
    endloop
  endfacet
  facet normal 0.195092 0.980785 -0
    outer loop
      vertex -11.5 59.05 0.25
      vertex -12.074 59.1642 20
      vertex -11.5 59.05 20
    endloop
  endfacet
  facet normal 0.195092 0.980785 0
    outer loop
      vertex -12.074 59.1642 20
      vertex -11.5 59.05 0.25
      vertex -12.074 59.1642 0.25
    endloop
  endfacet
  facet normal 0 1 -0
    outer loop
      vertex 11.5 59.05 0.25
      vertex -11.5 59.05 20
      vertex 11.5 59.05 20
    endloop
  endfacet
  facet normal 0 1 0
    outer loop
      vertex -11.5 59.05 20
      vertex 11.5 59.05 0.25
      vertex -11.5 59.05 0.25
    endloop
  endfacet
  facet normal 0.980785 0.19509 0
    outer loop
      vertex -12.8858 59.976 20
      vertex -13 60.55 0.25
      vertex -13 60.55 20
    endloop
  endfacet
  facet normal 0.980785 0.19509 0
    outer loop
      vertex -13 60.55 0.25
      vertex -12.8858 59.976 20
      vertex -12.8858 59.976 0.25
    endloop
  endfacet
  facet normal -0.195092 0.980785 0
    outer loop
      vertex 12.074 59.1642 0.25
      vertex 11.5 59.05 20
      vertex 12.074 59.1642 20
    endloop
  endfacet
  facet normal -0.195092 0.980785 0
    outer loop
      vertex 11.5 59.05 20
      vertex 12.074 59.1642 0.25
      vertex 11.5 59.05 0.25
    endloop
  endfacet
  facet normal -0.555572 0.831468 0
    outer loop
      vertex 12.5607 59.4893 0.25
      vertex 12.074 59.1642 20
      vertex 12.5607 59.4893 20
    endloop
  endfacet
  facet normal -0.555572 0.831468 0
    outer loop
      vertex 12.074 59.1642 20
      vertex 12.5607 59.4893 0.25
      vertex 12.074 59.1642 0.25
    endloop
  endfacet
  facet normal 0.555572 0.831468 -0
    outer loop
      vertex -12.074 59.1642 0.25
      vertex -12.5607 59.4893 20
      vertex -12.074 59.1642 20
    endloop
  endfacet
  facet normal 0.555572 0.831468 0
    outer loop
      vertex -12.5607 59.4893 20
      vertex -12.074 59.1642 0.25
      vertex -12.5607 59.4893 0.25
    endloop
  endfacet
  facet normal 0.831469 0.555572 0
    outer loop
      vertex -12.5607 59.4893 20
      vertex -12.8858 59.976 0.25
      vertex -12.8858 59.976 20
    endloop
  endfacet
  facet normal 0.831469 0.555572 0
    outer loop
      vertex -12.8858 59.976 0.25
      vertex -12.5607 59.4893 20
      vertex -12.5607 59.4893 0.25
    endloop
  endfacet
  facet normal -0.831469 0.555572 0
    outer loop
      vertex 12.5607 59.4893 0.25
      vertex 12.8858 59.976 20
      vertex 12.8858 59.976 0.25
    endloop
  endfacet
  facet normal -0.831469 0.555572 0
    outer loop
      vertex 12.8858 59.976 20
      vertex 12.5607 59.4893 0.25
      vertex 12.5607 59.4893 20
    endloop
  endfacet
  facet normal -0.980785 0.19509 0
    outer loop
      vertex 12.8858 59.976 0.25
      vertex 13 60.55 20
      vertex 13 60.55 0.25
    endloop
  endfacet
  facet normal -0.980785 0.19509 0
    outer loop
      vertex 13 60.55 20
      vertex 12.8858 59.976 0.25
      vertex 12.8858 59.976 20
    endloop
  endfacet
  facet normal 0 1 -0
    outer loop
      vertex -11.5 75 3.5
      vertex -15 75 20
      vertex -11.5 75 20
    endloop
  endfacet
  facet normal 0 1 0
    outer loop
      vertex -15 75 2
      vertex -11.5 75 3.5
      vertex -13 75 2
    endloop
  endfacet
  facet normal 0 1 0
    outer loop
      vertex -11.5 75 3.5
      vertex -15 75 2
      vertex -15 75 20
    endloop
  endfacet
  facet normal 0 1 0
    outer loop
      vertex 15 75 20
      vertex 11.5 75 3.5
      vertex 11.5 75 20
    endloop
  endfacet
  facet normal 0 1 -0
    outer loop
      vertex 15 75 2
      vertex 11.5 75 3.5
      vertex 15 75 20
    endloop
  endfacet
  facet normal 0 1 0
    outer loop
      vertex 11.5 75 3.5
      vertex 15 75 2
      vertex 13 75 2
    endloop
  endfacet
  facet normal -0 0 1
    outer loop
      vertex -11.5 49 2.5
      vertex 11.5 14.1 2.5
      vertex 11.5 49 2.5
    endloop
  endfacet
  facet normal 0 0 1
    outer loop
      vertex 11.5 14.1 2.5
      vertex -11.5 49 2.5
      vertex -11.5 14.1 2.5
    endloop
  endfacet
  facet normal -0 0 1
    outer loop
      vertex 11.5 14.1 2.5
      vertex 13 -14.9 2.5
      vertex 13 55 2.5
    endloop
  endfacet
  facet normal 0 0 1
    outer loop
      vertex 11.5 49 2.5
      vertex 13 55 2.5
      vertex 11.5 53 2.5
    endloop
  endfacet
  facet normal 0 0 1
    outer loop
      vertex 13 55 2.5
      vertex -11.5 53 2.5
      vertex 11.5 53 2.5
    endloop
  endfacet
  facet normal 0 0 1
    outer loop
      vertex -13 55 2.5
      vertex -11.5 49 2.5
      vertex -11.5 53 2.5
    endloop
  endfacet
  facet normal 0 0 1
    outer loop
      vertex -11.5 49 2.5
      vertex -13 55 2.5
      vertex -11.5 14.1 2.5
    endloop
  endfacet
  facet normal 0 0 1
    outer loop
      vertex -13 -14.9 2.5
      vertex -11.5 14.1 2.5
      vertex -13 55 2.5
    endloop
  endfacet
  facet normal 0 0 1
    outer loop
      vertex -11.5 10.1 2.5
      vertex -13 -14.9 2.5
      vertex -11.55 1.81865 2.5
    endloop
  endfacet
  facet normal 0 0 1
    outer loop
      vertex -11.5 14.1 2.5
      vertex -13 -14.9 2.5
      vertex -11.5 10.1 2.5
    endloop
  endfacet
  facet normal -0 0 1
    outer loop
      vertex -13 55 2.5
      vertex -11.5 53 2.5
      vertex 13 55 2.5
    endloop
  endfacet
  facet normal -0 0 1
    outer loop
      vertex 11.55 0.866025 2.5
      vertex 13 -14.9 2.5
      vertex 11.55 1.81865 2.5
    endloop
  endfacet
  facet normal -0 0 1
    outer loop
      vertex 11.55 -1.81865 2.5
      vertex 13 -14.9 2.5
      vertex 11.55 0.866025 2.5
    endloop
  endfacet
  facet normal 0 0 1
    outer loop
      vertex 4.98864 -4.98864 2.5
      vertex 11.55 -1.81865 2.5
      vertex 9.225 -0.476314 2.5
    endloop
  endfacet
  facet normal 0 0 1
    outer loop
      vertex 4.98864 -4.98864 2.5
      vertex 9.225 -0.476314 2.5
      vertex 8.4 -3.01677e-007 2.5
    endloop
  endfacet
  facet normal 0 0 1
    outer loop
      vertex 4.98864 -4.98864 2.5
      vertex 8.4 -3.01677e-007 2.5
      vertex 4.98864 4.98864 2.5
    endloop
  endfacet
  facet normal 0 0 1
    outer loop
      vertex 11.55 -1.81865 2.5
      vertex 4.98864 -4.98864 2.5
      vertex 13 -14.9 2.5
    endloop
  endfacet
  facet normal 0 0 1
    outer loop
      vertex 4.75 -12.1 2.5
      vertex 4.98864 -4.98864 2.5
      vertex 4.75 -4.98864 2.5
    endloop
  endfacet
  facet normal 0 0 1
    outer loop
      vertex 4.98864 -4.98864 2.5
      vertex 4.75 -12.1 2.5
      vertex 13 -14.9 2.5
    endloop
  endfacet
  facet normal 0 0 1
    outer loop
      vertex -13 -14.9 2.5
      vertex 4.75 -12.1 2.5
      vertex -7.25 -12.1 2.5
    endloop
  endfacet
  facet normal -0 0 1
    outer loop
      vertex -11.55 -1.81865 2.5
      vertex -7.25 -6.7 2.5
      vertex -9.225 -0.476314 2.5
    endloop
  endfacet
  facet normal 0 0 1
    outer loop
      vertex -13 -14.9 2.5
      vertex -7.25 -6.7 2.5
      vertex -11.55 -1.81865 2.5
    endloop
  endfacet
  facet normal 0 0 1
    outer loop
      vertex -11.55 1.81865 2.5
      vertex -13 -14.9 2.5
      vertex -11.55 0.866025 2.5
    endloop
  endfacet
  facet normal 0 0 1
    outer loop
      vertex 4.75 -12.1 2.5
      vertex -13 -14.9 2.5
      vertex 13 -14.9 2.5
    endloop
  endfacet
  facet normal 0 0 1
    outer loop
      vertex -7.25 -6.7 2.5
      vertex -13 -14.9 2.5
      vertex -7.25 -12.1 2.5
    endloop
  endfacet
  facet normal 0 0 1
    outer loop
      vertex -11.55 0.866025 2.5
      vertex -13 -14.9 2.5
      vertex -11.55 -1.81865 2.5
    endloop
  endfacet
  facet normal 0 0 1
    outer loop
      vertex 11.5 14.1 2.5
      vertex 13 55 2.5
      vertex 11.5 49 2.5
    endloop
  endfacet
  facet normal -0 0 1
    outer loop
      vertex 11.5 10.1 2.5
      vertex 13 -14.9 2.5
      vertex 11.5 14.1 2.5
    endloop
  endfacet
  facet normal 0 0 1
    outer loop
      vertex 13 -14.9 2.5
      vertex 11.5 10.1 2.5
      vertex 11.55 1.81865 2.5
    endloop
  endfacet
  facet normal -0 0 1
    outer loop
      vertex 4.98864 4.98864 2.5
      vertex 11.55 1.81865 2.5
      vertex 11.5 10.1 2.5
    endloop
  endfacet
  facet normal 0 0 1
    outer loop
      vertex 11.55 1.81865 2.5
      vertex 4.98864 4.98864 2.5
      vertex 8.4 -3.01677e-007 2.5
    endloop
  endfacet
  facet normal 0 0 1
    outer loop
      vertex 11.5 10.1 2.5
      vertex -4.98864 4.98864 2.5
      vertex 4.98864 4.98864 2.5
    endloop
  endfacet
  facet normal -0 0 1
    outer loop
      vertex -8.4 -3.01677e-007 2.5
      vertex -4.98864 -4.98864 2.5
      vertex -4.98864 4.98864 2.5
    endloop
  endfacet
  facet normal 0 0 1
    outer loop
      vertex -4.98864 -4.98864 2.5
      vertex -9.225 -0.476314 2.5
      vertex -7.25 -6.7 2.5
    endloop
  endfacet
  facet normal -0 0 1
    outer loop
      vertex -9.225 -0.476314 2.5
      vertex -4.98864 -4.98864 2.5
      vertex -8.4 -3.01677e-007 2.5
    endloop
  endfacet
  facet normal -0 0 1
    outer loop
      vertex -11.5 10.1 2.5
      vertex -4.98864 4.98864 2.5
      vertex 11.5 10.1 2.5
    endloop
  endfacet
  facet normal 0 0 1
    outer loop
      vertex -11.55 1.81865 2.5
      vertex -4.98864 4.98864 2.5
      vertex -11.5 10.1 2.5
    endloop
  endfacet
  facet normal 0 0 1
    outer loop
      vertex -4.98864 4.98864 2.5
      vertex -11.55 1.81865 2.5
      vertex -8.4 -3.01677e-007 2.5
    endloop
  endfacet
  facet normal -0 0 1
    outer loop
      vertex -4.98864 -4.98864 2.5
      vertex -4.75 -6.7 2.5
      vertex -4.75 -4.98864 2.5
    endloop
  endfacet
  facet normal 0 0 1
    outer loop
      vertex -4.75 -6.7 2.5
      vertex -4.98864 -4.98864 2.5
      vertex -7.25 -6.7 2.5
    endloop
  endfacet
  facet normal 0 -1 0
    outer loop
      vertex -13 55 2.5
      vertex 13 55 20
      vertex -13 55 20
    endloop
  endfacet
  facet normal 0 -1 -0
    outer loop
      vertex 13 55 20
      vertex -13 55 2.5
      vertex 13 55 2.5
    endloop
  endfacet
  facet normal 1 -0 0
    outer loop
      vertex -11.5 10.1 2.5
      vertex -11.5 14.1 0
      vertex -11.5 14.1 2.5
    endloop
  endfacet
  facet normal 1 0 0
    outer loop
      vertex -11.5 14.1 0
      vertex -11.5 10.1 2.5
      vertex -11.5 10.1 0
    endloop
  endfacet
  facet normal -1 0 0
    outer loop
      vertex 11.5 10.1 0
      vertex 11.5 14.1 2.5
      vertex 11.5 14.1 0
    endloop
  endfacet
  facet normal -1 -0 0
    outer loop
      vertex 11.5 14.1 2.5
      vertex 11.5 10.1 0
      vertex 11.5 10.1 2.5
    endloop
  endfacet
  facet normal 0 1 -0
    outer loop
      vertex 11.5 10.1 0
      vertex -11.5 10.1 2.5
      vertex 11.5 10.1 2.5
    endloop
  endfacet
  facet normal 0 1 0
    outer loop
      vertex -11.5 10.1 2.5
      vertex 11.5 10.1 0
      vertex -11.5 10.1 0
    endloop
  endfacet
  facet normal 0 -1 0
    outer loop
      vertex -11.5 14.1 0
      vertex 11.5 14.1 2.5
      vertex -11.5 14.1 2.5
    endloop
  endfacet
  facet normal 0 -1 -0
    outer loop
      vertex 11.5 14.1 2.5
      vertex -11.5 14.1 0
      vertex 11.5 14.1 0
    endloop
  endfacet
  facet normal 1 -0 0
    outer loop
      vertex -11.5 49 2.5
      vertex -11.5 53 0
      vertex -11.5 53 2.5
    endloop
  endfacet
  facet normal 1 0 0
    outer loop
      vertex -11.5 53 0
      vertex -11.5 49 2.5
      vertex -11.5 49 0
    endloop
  endfacet
  facet normal -1 0 0
    outer loop
      vertex 11.5 49 0
      vertex 11.5 53 2.5
      vertex 11.5 53 0
    endloop
  endfacet
  facet normal -1 -0 0
    outer loop
      vertex 11.5 53 2.5
      vertex 11.5 49 0
      vertex 11.5 49 2.5
    endloop
  endfacet
  facet normal 0 1 -0
    outer loop
      vertex 11.5 49 0
      vertex -11.5 49 2.5
      vertex 11.5 49 2.5
    endloop
  endfacet
  facet normal 0 1 0
    outer loop
      vertex -11.5 49 2.5
      vertex 11.5 49 0
      vertex -11.5 49 0
    endloop
  endfacet
  facet normal 0 -1 0
    outer loop
      vertex -11.5 53 0
      vertex 11.5 53 2.5
      vertex -11.5 53 2.5
    endloop
  endfacet
  facet normal 0 -1 -0
    outer loop
      vertex 11.5 53 2.5
      vertex -11.5 53 0
      vertex 11.5 53 0
    endloop
  endfacet
endsolid OpenSCAD_Model
